HIERARCHY
ROOT Hips
{
  OFFSET 90.7885 88.945 -76.2838
  CHANNELS 6 Xposition Yposition Zposition Zrotation Xrotation Yrotation
  JOINT LeftUpLeg
  {
    OFFSET 8.64259 1.95398 -2.38835
    CHANNELS 3 Zrotation Xrotation Yrotation
    JOINT LeftLeg
    {
      OFFSET 43.7702 0 0
      CHANNELS 3 Zrotation Xrotation Yrotation
      JOINT LeftFoot
      {
        OFFSET 40.6238 0 0
        CHANNELS 3 Zrotation Xrotation Yrotation
        JOINT LeftToeBase
        {
          OFFSET 12.7242 0 0
          CHANNELS 3 Zrotation Xrotation Yrotation
          End Site
          {
            OFFSET 0 0 0
          }
        }
      }
    }
  }
  JOINT RightUpLeg
  {
    OFFSET -8.2249 1.95398 -2.59336
    CHANNELS 3 Zrotation Xrotation Yrotation
    JOINT RightLeg
    {
      OFFSET 43.5653 0 0
      CHANNELS 3 Zrotation Xrotation Yrotation
      JOINT RightFoot
      {
        OFFSET 40.6238 0 0
        CHANNELS 3 Zrotation Xrotation Yrotation
        JOINT RightToeBase
        {
          OFFSET 12.7242 0 0
          CHANNELS 3 Zrotation Xrotation Yrotation
          End Site
          {
            OFFSET 0 0 0
          }
        }
      }
    }
  }
  JOINT Spine
  {
    OFFSET 0.165834 0.87714 6.61349
    CHANNELS 3 Zrotation Xrotation Yrotation
    JOINT Spine1
    {
      OFFSET 7.38963 1.71661e-005 0
      CHANNELS 3 Zrotation Xrotation Yrotation
      JOINT Spine2
      {
        OFFSET 11.9445 1.14441e-005 0
        CHANNELS 3 Zrotation Xrotation Yrotation
        JOINT Spine3
        {
          OFFSET 14.7254 4.19617e-005 0
          CHANNELS 3 Zrotation Xrotation Yrotation
          JOINT Spine4
          {
            OFFSET 10.9679 0 0
            CHANNELS 3 Zrotation Xrotation Yrotation
            JOINT RightShoulder
            {
              OFFSET 2.46616 -1.6653 3.69651
              CHANNELS 3 Zrotation Xrotation Yrotation
              JOINT RightArm
              {
                OFFSET 13.0012 0 0
                CHANNELS 3 Zrotation Xrotation Yrotation
                JOINT RightForeArm
                {
                  OFFSET 28.7848 1.52588e-005 0
                  CHANNELS 3 Zrotation Xrotation Yrotation
                  JOINT RightHand
                  {
                    OFFSET 26.5688 1.52588e-005 0
                    CHANNELS 3 Zrotation Xrotation Yrotation
                    End Site
                    {
                      OFFSET 0 0 0
                    }
                  }
                }
              }
            }
            JOINT LeftShoulder
            {
              OFFSET 2.38034 -1.29275 -3.7523
              CHANNELS 3 Zrotation Xrotation Yrotation
              JOINT LeftArm
              {
                OFFSET 16.3182 6.10352e-005 0
                CHANNELS 3 Zrotation Xrotation Yrotation
                JOINT LeftForeArm
                {
                  OFFSET 27.0901 0 0
                  CHANNELS 3 Zrotation Xrotation Yrotation
                  JOINT LeftHand
                  {
                    OFFSET 24.5451 1.52588e-005 0
                    CHANNELS 3 Zrotation Xrotation Yrotation
                    End Site
                    {
                      OFFSET 0 0 0
                    }
                  }
                }
              }
            }
            JOINT Neck
            {
              OFFSET 5.0226 -0.0266342 0
              CHANNELS 3 Zrotation Xrotation Yrotation
              JOINT Head
              {
                OFFSET 6.69363 2.86102e-005 0
                CHANNELS 3 Zrotation Xrotation Yrotation
                End Site
                {
                  OFFSET 0 0 0
                }
              }
            }
          }
        }
      }
    }
  }
}
MOTION
Frames:	6
Frame Time:	0.0416667
34.3742 94.722 0.516208 -111.257 -70.3995 -113.804 -179.948 17.5946 87.3172 -9.86491 10.7299 -0.565119 58.2118 0.880196 -5.44807 17.7501 -5.66719 8.62542 168.661 -17.258 84.6853 -25.3494 -29.929 -3.76221 79.855 -11.3784 -7.02039 28.7802 -2.75781 6.51801 1.78845 8.07544 -89.8359 10.7275 3.63712 -0.00816812 -0.938375 3.63324 -0.168458 -23.5118 3.47122 1.08666 -3.49916 3.47122 1.08665 87.3447 -28.3634 -112.742 27.9428 -5.61458 -16.1105 -9.14384 -25.6943 -33.4544 -28.5124 -0.297116 -10.1584 -86.2627 -60.8394 85.8246 -19.6662 9.6551 7.55901 4.44055 -9.54252 -3.56336 -1.5813 -0.0846733 -3.52129 4.19714 -9.45811 -0.410549 -1.57213 -9.25683 -10.0614 
31.8591 95.1272 11.2929 -108 -65.9928 -112.892 -177.875 17.6551 85.3001 -24.8616 9.61557 -2.1353 64.4288 2.18572 -9.37506 12.9029 -11.3081 15.1099 170.429 -13.4327 81.6753 -41.3966 -28.8177 -8.17948 66.6368 -3.67571 -4.47167 35.4144 -3.80478 9.17404 1.65738 7.93367 -89.4671 10.9982 3.54634 0.722865 -0.668001 3.57471 0.565887 -23.2339 3.16501 1.75619 -3.22123 3.165 1.75619 88.4608 -28.2217 -110.574 35.9799 -12.3557 -13.2708 -2.39678 -29.0883 -24.4756 -27.2883 -0.696232 -9.03089 -87.3702 -59.0023 84.083 -22.4526 9.02291 4.69979 4.9283 -9.3016 -2.89916 -4.22665 -0.0843523 -5.13316 5.04713 -9.26253 -3.02774 -2.69785 -8.49701 -8.23882 
29.4491 95.5677 19.6922 -106.763 -60.5963 -113.282 -177.298 12.1883 83.7841 -28.9295 5.01293 -3.69815 71.2427 4.20764 -8.4079 16.014 -8.26311 11.73 175.634 -0.619297 80.0006 -64.0539 -23.9839 -7.80068 58.9109 -0.122784 -1.75336 20.9408 -1.88877 5.23592 1.11686 8.05348 -89.198 10.7499 2.59374 1.3553 -0.919098 2.65087 1.23978 -23.4629 2.06657 2.07226 -3.45025 2.06655 2.07226 87.6334 -29.7669 -111.519 39.7248 -17.3691 -9.41499 4.724 -26.9033 -14.2775 -22.4507 -0.621356 -9.00905 -88.0147 -57.9092 83.0348 -20.4705 11.1239 -4.22903 4.24645 -11.9095 -1.17443 -0.622683 -0.101695 -5.33652 6.75001 -7.5083 -3.56142 -2.38735 -6.62827 -7.55126 
26.5428 96.3176 26.6768 -103.838 -54.9198 -108.86 -176.833 6.07839 85.2683 -28.8616 0.693955 -4.53265 77.2439 5.85727 -7.46341 15.5537 -8.08277 11.5074 179.602 11.6065 83.303 -67.8962 -17.9531 -6.34772 67.9907 -4.91079 -4.69881 22.8368 -2.2299 5.85342 0.56684 8.10058 -89.3628 10.6652 1.42249 1.13708 -1.00539 1.47116 1.07337 -23.5401 1.01503 1.51199 -3.52748 1.01503 1.51199 87.5985 -30.5545 -111.236 41.9688 -15.879 -3.07194 6.54067 -29.9401 -10.9655 -22.2858 -1.28153 -5.99028 -88.6611 -57.1159 82.0143 -13.6988 11.24 -14.5479 3.95291 -10.8634 -1.71611 0.45231 -0.113223 -5.19751 6.92175 -4.73966 -4.63742 -1.16434 -3.75544 -5.21806 
22.8618 96.9875 33.3415 -100.352 -49.8138 -102.244 -177.136 0.136123 86.4734 -26.3058 -4.76641 -2.98825 81.1303 6.02676 -6.71916 14.3402 -9.23019 12.7941 -179.549 19.3818 89.616 -51.3547 -17.1836 -5.09892 70.8328 -6.47407 -4.52226 22.7594 -3.11568 7.68733 0.0439761 8.01362 -89.7179 10.8458 0.217926 0.540678 -0.825262 0.241504 0.530558 -23.3595 0.0453642 0.58118 -3.34687 0.0453548 0.581178 88.7698 -30.2607 -109.08 41.8417 -13.047 2.57394 5.75529 -25.9962 -11.4816 -22.1242 -0.777504 -7.89619 -88.3458 -52.6072 81.6805 -9.67232 8.27557 -19.159 4.941 -7.14157 -8.04136 3.89013 -0.0861208 -4.28931 7.11934 -1.91459 -6.06735 -2.36103 -0.648538 -2.70189 
18.5623 96.6804 40.023 -98.1441 -47.1556 -98.672 -177.715 -6.52972 86.539 -21.5637 -9.0204 -2.04154 84.2625 6.60726 -6.68632 13.819 -7.56677 10.8376 176.982 20.377 93.8755 -23.7805 -13.5614 -1.20483 64.9408 -3.44788 -1.53776 22.7076 -1.49917 4.36271 -0.493779 7.9235 -89.9731 11.0272 -0.970459 0.146809 -0.643345 -0.963084 0.189382 -23.1816 -0.969737 -0.15168 -3.1689 -0.96971 -0.15167 89.6685 -30.5653 -107.196 38.934 -9.27695 7.6611 4.34765 -22.9756 -13.8347 -22.3811 -0.267039 -10.1227 -88.0522 -48.5383 81.3766 -6.37716 5.52075 -23.6637 6.35923 -3.80707 -11.5332 2.89285 -0.176702 -6.30601 7.32471 0.299421 -6.38726 -2.84311 1.58361 0.677926 
